<svg width="512" height="512" xmlns="http://www.w3.org/2000/svg">

 <g>
  <title>background</title>
  <rect fill="none" id="canvas_background" height="514" width="514" y="-1" x="-1"/>
 </g>
 <g>
  <title>Layer 1</title>
  <path stroke="#000" fill="#ffffff" id="svg_2" d="m484.128,270.745c-6.368,-19.509 -27.621,-29.879 -47.231,-23.513l-46.615,15.503l-31.112,-92.409l46.616,-15.504c19.61,-6.366 29.878,-27.517 23.614,-47.127c-6.364,-19.509 -27.619,-29.88 -47.23,-23.513l-46.616,15.503l-16.119,-48.257c-6.367,-19.509 -27.62,-29.879 -47.231,-23.513c-19.61,6.366 -29.877,27.518 -23.614,47.127l16.12,48.258l-95.9,32.036l-16.121,-48.258c-6.366,-19.509 -27.62,-29.879 -47.232,-23.513c-19.611,6.366 -29.877,27.517 -23.615,47.128l16.121,48.258l-46.513,15.4c-19.61,6.367 -29.879,27.518 -23.616,47.13c5.135,14.888 19.612,24.641 34.5,25.258c6.982,1.026 12.321,-1.643 59.244,-17.25l31.111,92.41l-46.616,15.503c-19.509,6.367 -29.878,27.621 -23.615,47.129c5.134,14.888 19.611,24.643 34.498,25.257c6.983,1.028 12.323,-1.643 59.246,-17.248l16.12,48.259c6.059,17.353 25.362,29.773 47.231,23.513c19.61,-6.367 29.878,-27.52 23.615,-47.129l-16.121,-48.258l96.106,-32.139l16.118,48.258c6.059,17.352 25.363,29.777 47.231,23.512c19.612,-6.364 29.88,-27.516 23.616,-47.126l-16.118,-48.258l46.613,-15.506c19.511,-6.158 29.879,-27.413 23.515,-46.921l0,0zm-260.902,48.461l-31.111,-92.612l96.003,-32.138l31.109,92.613l-96.001,32.137l0,0z"/>
 </g>
</svg>